<?xml version="1.0" standalone="no"?><!DOCTYPE svg PUBLIC "-//W3C//DTD SVG 1.1//EN" "http://www.w3.org/Graphics/SVG/1.1/DTD/svg11.dtd"><svg t="1582744222892" class="icon" viewBox="0 0 1024 1024" version="1.1" xmlns="http://www.w3.org/2000/svg" p-id="1164" xmlns:xlink="http://www.w3.org/1999/xlink" width="200" height="200"><defs><style type="text/css">@font-face { font-family: Multicolore; font-style: normal; font-weight: 400; src: local("Multicolore"), local("Multicolore"), url("chrome-extension://hfapbcheiepjppjbnkphkmegjlipojba/fonts/Multicolore.ttf.woff") format("woff"); }
@font-face { font-family: "PT Sans"; font-style: normal; font-weight: 400; src: local("PT Sans"), local("PTSans-Regular"), url("chrome-extension://hfapbcheiepjppjbnkphkmegjlipojba/fonts/ptsans-v8/fhNmDCnjccoUYyU4ZASaLVKPGs1ZzpMvnHX-7fPOuAc.woff2") format("woff2"); unicode-range: U+460-52F, U+20B4, U+2DE0-2DFF, U+A640-A69F; }
@font-face { font-family: "PT Sans"; font-style: normal; font-weight: 400; src: local("PT Sans"), local("PTSans-Regular"), url("chrome-extension://hfapbcheiepjppjbnkphkmegjlipojba/fonts/ptsans-v8/BJVWev7_auVaQ__OU8Qih1KPGs1ZzpMvnHX-7fPOuAc.woff2") format("woff2"); unicode-range: U+400-45F, U+490-491, U+4B0-4B1, U+2116; }
@font-face { font-family: "PT Sans"; font-style: normal; font-weight: 400; src: local("PT Sans"), local("PTSans-Regular"), url("chrome-extension://hfapbcheiepjppjbnkphkmegjlipojba/fonts/ptsans-v8/oysROHFTu1eTZ74Hcf8V-VKPGs1ZzpMvnHX-7fPOuAc.woff2") format("woff2"); unicode-range: U+100-24F, U+1E00-1EFF, U+20A0-20AB, U+20AD-20CF, U+2C60-2C7F, U+A720-A7FF; }
@font-face { font-family: "PT Sans"; font-style: normal; font-weight: 400; src: local("PT Sans"), local("PTSans-Regular"), url("chrome-extension://hfapbcheiepjppjbnkphkmegjlipojba/fonts/ptsans-v8/CWlc_g68BGYDSGdpJvpktgLUuEpTyoUstqEm5AMlJo4.woff2") format("woff2"); unicode-range: U+0-FF, U+131, U+152-153, U+2C6, U+2DA, U+2DC, U+2000-206F, U+2074, U+20AC, U+2212, U+2215; }
@font-face { font-family: "PT Sans"; font-style: normal; font-weight: 700; src: local("PT Sans Bold"), local("PTSans-Bold"), url("chrome-extension://hfapbcheiepjppjbnkphkmegjlipojba/fonts/ptsans-v8/kTYfCWJhlldPf5LnG4ZnHAsYbbCjybiHxArTLjt7FRU.woff2") format("woff2"); unicode-range: U+460-52F, U+20B4, U+2DE0-2DFF, U+A640-A69F; }
@font-face { font-family: "PT Sans"; font-style: normal; font-weight: 700; src: local("PT Sans Bold"), local("PTSans-Bold"), url("chrome-extension://hfapbcheiepjppjbnkphkmegjlipojba/fonts/ptsans-v8/g46X4VH_KHOWAAa-HpnGPgsYbbCjybiHxArTLjt7FRU.woff2") format("woff2"); unicode-range: U+400-45F, U+490-491, U+4B0-4B1, U+2116; }
@font-face { font-family: "PT Sans"; font-style: normal; font-weight: 700; src: local("PT Sans Bold"), local("PTSans-Bold"), url("chrome-extension://hfapbcheiepjppjbnkphkmegjlipojba/fonts/ptsans-v8/hpORcvLZtemlH8gI-1S-7gsYbbCjybiHxArTLjt7FRU.woff2") format("woff2"); unicode-range: U+100-24F, U+1E00-1EFF, U+20A0-20AB, U+20AD-20CF, U+2C60-2C7F, U+A720-A7FF; }
@font-face { font-family: "PT Sans"; font-style: normal; font-weight: 700; src: local("PT Sans Bold"), local("PTSans-Bold"), url("chrome-extension://hfapbcheiepjppjbnkphkmegjlipojba/fonts/ptsans-v8/0XxGQsSc1g4rdRdjJKZrNAzyDMXhdD8sAj6OAJTFsBI.woff2") format("woff2"); unicode-range: U+0-FF, U+131, U+152-153, U+2C6, U+2DA, U+2DC, U+2000-206F, U+2074, U+20AC, U+2212, U+2215; }
@font-face { font-family: "Open Sans"; font-style: normal; font-weight: 400; src: local("Open Sans"), local("OpenSans"), url("chrome-extension://hfapbcheiepjppjbnkphkmegjlipojba/fonts/open-sans-v13-latin-regular.woff2") format("woff2"); }
@font-face { font-family: "Open Sans"; font-style: normal; font-weight: 600; src: local("Open Sans Semibold"), local("OpenSans-Semibold"), url("chrome-extension://hfapbcheiepjppjbnkphkmegjlipojba/fonts/open-sans-v13-latin-600.woff2") format("woff2"); }
@font-face { font-family: "Open Sans"; font-style: normal; font-weight: 700; src: local("Open Sans Bold"), local("OpenSans-Bold"), url("chrome-extension://hfapbcheiepjppjbnkphkmegjlipojba/fonts/open-sans-v13-latin-700.woff2") format("woff2"); }
@font-face { font-family: FontAwesome; font-style: normal; src: local("Font Awesome"), local("FontAwesome"), url("chrome-extension://hfapbcheiepjppjbnkphkmegjlipojba/fonts/fontawesome-webfont.woff2") format("woff2"); }
@font-face { font-family: Roboto; font-style: normal; font-weight: 300; src: local("Roboto"), local("Roboto"), url("chrome-extension://hfapbcheiepjppjbnkphkmegjlipojba/fonts/roboto/KFOlCnqEu92Fr1MmYUtfCxc4AMP6lbqE.woff2") format("woff2"); unicode-range: U+460-52F, U+1C80-1C88, U+20B4, U+2DE0-2DFF, U+A640-A69F, U+FE2E-FE2F; }
@font-face { font-family: Roboto; font-style: normal; font-weight: 500; src: local("Roboto Medium"), local("Roboto-Medium"), url("chrome-extension://hfapbcheiepjppjbnkphkmegjlipojba/fonts/roboto/KFOlCnqEu92Fr1MmEU9fCRc4AMP6lbBP.woff2") format("woff2"); unicode-range: U+460-52F, U+1C80-1C88, U+20B4, U+2DE0-2DFF, U+A640-A69F, U+FE2E-FE2F; }
@font-face { font-family: Roboto; font-style: normal; font-weight: 500; src: local("Roboto Medium"), local("Roboto-Medium"), url("chrome-extension://hfapbcheiepjppjbnkphkmegjlipojba/fonts/roboto/KFOlCnqEu92Fr1MmEU9fABc4AMP6lbBP.woff2") format("woff2"); unicode-range: U+400-45F, U+490-491, U+4B0-4B1, U+2116; }
@font-face { font-family: Roboto; font-style: normal; font-weight: 500; src: local("Roboto Medium"), local("Roboto-Medium"), url("chrome-extension://hfapbcheiepjppjbnkphkmegjlipojba/fonts/roboto/KFOlCnqEu92Fr1MmEU9fCBc4AMP6lbBP.woff2") format("woff2"); unicode-range: U+1F00-1FFF; }
@font-face { font-family: Roboto; font-style: normal; font-weight: 500; src: local("Roboto Medium"), local("Roboto-Medium"), url("chrome-extension://hfapbcheiepjppjbnkphkmegjlipojba/fonts/roboto/KFOlCnqEu92Fr1MmEU9fBxc4AMP6lbBP.woff2") format("woff2"); unicode-range: U+370-3FF; }
@font-face { font-family: Roboto; font-style: normal; font-weight: 500; src: local("Roboto Medium"), local("Roboto-Medium"), url("chrome-extension://hfapbcheiepjppjbnkphkmegjlipojba/fonts/roboto/KFOlCnqEu92Fr1MmEU9fCxc4AMP6lbBP.woff2") format("woff2"); unicode-range: U+102-103, U+110-111, U+1EA0-1EF9, U+20AB; }
@font-face { font-family: Roboto; font-style: normal; font-weight: 500; src: local("Roboto Medium"), local("Roboto-Medium"), url("chrome-extension://hfapbcheiepjppjbnkphkmegjlipojba/fonts/roboto/KFOlCnqEu92Fr1MmEU9fChc4AMP6lbBP.woff2") format("woff2"); unicode-range: U+100-24F, U+259, U+1E00-1EFF, U+2020, U+20A0-20AB, U+20AD-20CF, U+2113, U+2C60-2C7F, U+A720-A7FF; }
@font-face { font-family: Roboto; font-style: normal; font-weight: 500; src: local("Roboto Medium"), local("Roboto-Medium"), url("chrome-extension://hfapbcheiepjppjbnkphkmegjlipojba/fonts/roboto/KFOlCnqEu92Fr1MmEU9fBBc4AMP6lQ.woff2") format("woff2"); unicode-range: U+0-FF, U+131, U+152-153, U+2BB-2BC, U+2C6, U+2DA, U+2DC, U+2000-206F, U+2074, U+20AC, U+2122, U+2191, U+2193, U+2212, U+2215, U+FEFF, U+FFFD; }
@font-face { font-family: Roboto; font-style: normal; font-weight: 700; src: local("Roboto Bold"), local("Roboto-Bold"), url("chrome-extension://hfapbcheiepjppjbnkphkmegjlipojba/fonts/roboto/KFOlCnqEu92Fr1MmWUlfCRc4AMP6lbBP.woff2") format("woff2"); unicode-range: U+460-52F, U+1C80-1C88, U+20B4, U+2DE0-2DFF, U+A640-A69F, U+FE2E-FE2F; }
@font-face { font-family: Roboto; font-style: normal; font-weight: 700; src: local("Roboto Bold"), local("Roboto-Bold"), url("chrome-extension://hfapbcheiepjppjbnkphkmegjlipojba/fonts/roboto/KFOlCnqEu92Fr1MmWUlfABc4AMP6lbBP.woff2") format("woff2"); unicode-range: U+400-45F, U+490-491, U+4B0-4B1, U+2116; }
@font-face { font-family: Roboto; font-style: normal; font-weight: 700; src: local("Roboto Bold"), local("Roboto-Bold"), url("chrome-extension://hfapbcheiepjppjbnkphkmegjlipojba/fonts/roboto/KFOlCnqEu92Fr1MmWUlfCBc4AMP6lbBP.woff2") format("woff2"); unicode-range: U+1F00-1FFF; }
@font-face { font-family: Roboto; font-style: normal; font-weight: 700; src: local("Roboto Bold"), local("Roboto-Bold"), url("chrome-extension://hfapbcheiepjppjbnkphkmegjlipojba/fonts/roboto/KFOlCnqEu92Fr1MmWUlfBxc4AMP6lbBP.woff2") format("woff2"); unicode-range: U+370-3FF; }
@font-face { font-family: Roboto; font-style: normal; font-weight: 700; src: local("Roboto Bold"), local("Roboto-Bold"), url("chrome-extension://hfapbcheiepjppjbnkphkmegjlipojba/fonts/roboto/KFOlCnqEu92Fr1MmWUlfCxc4AMP6lbBP.woff2") format("woff2"); unicode-range: U+102-103, U+110-111, U+1EA0-1EF9, U+20AB; }
@font-face { font-family: Roboto; font-style: normal; font-weight: 700; src: local("Roboto Bold"), local("Roboto-Bold"), url("chrome-extension://hfapbcheiepjppjbnkphkmegjlipojba/fonts/roboto/KFOlCnqEu92Fr1MmWUlfChc4AMP6lbBP.woff2") format("woff2"); unicode-range: U+100-24F, U+259, U+1E00-1EFF, U+2020, U+20A0-20AB, U+20AD-20CF, U+2113, U+2C60-2C7F, U+A720-A7FF; }
@font-face { font-family: Roboto; font-style: normal; font-weight: 700; src: local("Roboto Bold"), local("Roboto-Bold"), url("chrome-extension://hfapbcheiepjppjbnkphkmegjlipojba/fonts/roboto/KFOlCnqEu92Fr1MmWUlfBBc4AMP6lQ.woff2") format("woff2"); unicode-range: U+0-FF, U+131, U+152-153, U+2BB-2BC, U+2C6, U+2DA, U+2DC, U+2000-206F, U+2074, U+20AC, U+2122, U+2191, U+2193, U+2212, U+2215, U+FEFF, U+FFFD; }
@font-face { font-family: Roboto; font-style: normal; font-weight: 900; src: local("Roboto Black"), local("Roboto-Black"), url("chrome-extension://hfapbcheiepjppjbnkphkmegjlipojba/fonts/roboto/KFOlCnqEu92Fr1MmYUtfCRc4AMP6lbBP.woff2") format("woff2"); unicode-range: U+460-52F, U+1C80-1C88, U+20B4, U+2DE0-2DFF, U+A640-A69F, U+FE2E-FE2F; }
@font-face { font-family: Roboto; font-style: normal; font-weight: 900; src: local("Roboto Black"), local("Roboto-Black"), url("chrome-extension://hfapbcheiepjppjbnkphkmegjlipojba/fonts/roboto/KFOlCnqEu92Fr1MmYUtfABc4AMP6lbBP.woff2") format("woff2"); unicode-range: U+400-45F, U+490-491, U+4B0-4B1, U+2116; }
@font-face { font-family: Roboto; font-style: normal; font-weight: 900; src: local("Roboto Black"), local("Roboto-Black"), url("chrome-extension://hfapbcheiepjppjbnkphkmegjlipojba/fonts/roboto/KFOlCnqEu92Fr1MmYUtfCBc4AMP6lbBP.woff2") format("woff2"); unicode-range: U+1F00-1FFF; }
@font-face { font-family: Roboto; font-style: normal; font-weight: 900; src: local("Roboto Black"), local("Roboto-Black"), url("chrome-extension://hfapbcheiepjppjbnkphkmegjlipojba/fonts/roboto/KFOlCnqEu92Fr1MmYUtfBxc4AMP6lbBP.woff2") format("woff2"); unicode-range: U+370-3FF; }
@font-face { font-family: Roboto; font-style: normal; font-weight: 900; src: local("Roboto Black"), local("Roboto-Black"), url("chrome-extension://hfapbcheiepjppjbnkphkmegjlipojba/fonts/roboto/KFOlCnqEu92Fr1MmYUtfCxc4AMP6lbBP.woff2") format("woff2"); unicode-range: U+102-103, U+110-111, U+1EA0-1EF9, U+20AB; }
@font-face { font-family: Roboto; font-style: normal; font-weight: 900; src: local("Roboto Black"), local("Roboto-Black"), url("chrome-extension://hfapbcheiepjppjbnkphkmegjlipojba/fonts/roboto/KFOlCnqEu92Fr1MmYUtfChc4AMP6lbBP.woff2") format("woff2"); unicode-range: U+100-24F, U+259, U+1E00-1EFF, U+2020, U+20A0-20AB, U+20AD-20CF, U+2113, U+2C60-2C7F, U+A720-A7FF; }
@font-face { font-family: Roboto; font-style: normal; font-weight: 900; src: local("Roboto Black"), local("Roboto-Black"), url("chrome-extension://hfapbcheiepjppjbnkphkmegjlipojba/fonts/roboto/KFOlCnqEu92Fr1MmYUtfBBc4AMP6lQ.woff2") format("woff2"); unicode-range: U+0-FF, U+131, U+152-153, U+2BB-2BC, U+2C6, U+2DA, U+2DC, U+2000-206F, U+2074, U+20AC, U+2122, U+2191, U+2193, U+2212, U+2215, U+FEFF, U+FFFD; }
@font-face { font-family: Montserrat; font-style: normal; font-weight: 400; src: local("Montserrat Regular"), local("Montserrat-Regular"), url("chrome-extension://hfapbcheiepjppjbnkphkmegjlipojba/fonts/montserrat/Montserrat-Regular.woff2") format("woff2"); }
@font-face { font-family: Montserrat; font-style: normal; font-weight: 500; src: local("Montserrat Medium"), local("Montserrat-Medium"), url("chrome-extension://hfapbcheiepjppjbnkphkmegjlipojba/fonts/montserrat/Montserrat-Medium.woff2") format("woff2"); }
@font-face { font-family: Montserrat; font-style: normal; font-weight: 600; src: local("Montserrat SemiBold"), local("Montserrat-SemiBold"), url("chrome-extension://hfapbcheiepjppjbnkphkmegjlipojba/fonts/montserrat/Montserrat-SemiBold.woff2") format("woff2"); }
@font-face { font-family: Montserrat; font-style: normal; font-weight: 700; src: local("Montserrat Bold"), local("Montserrat-Bold"), url("chrome-extension://hfapbcheiepjppjbnkphkmegjlipojba/fonts/montserrat/Montserrat-Bold.woff2") format("woff2"); }
@font-face { font-family: Montserrat; font-style: normal; font-weight: 800; src: local("Montserrat ExtraBold"), local("Montserrat-ExtraBold"), url("chrome-extension://hfapbcheiepjppjbnkphkmegjlipojba/fonts/montserrat/Montserrat-ExtraBold.woff2") format("woff2"); }
</style></defs><path d="M781.1 300.7c-7.9 0-14.3-6.4-14.3-14.3v-44.7c0-7.9 6.4-14.3 14.3-14.3s14.3 6.4 14.3 14.3v44.7c0 7.9-6.4 14.3-14.3 14.3zM242.5 300.7c-7.9 0-14.3-6.4-14.3-14.3v-44.7c0-7.9 6.4-14.3 14.3-14.3s14.3 6.4 14.3 14.3v44.7c0.1 7.9-6.4 14.3-14.3 14.3z" fill="#FF5959" p-id="1165"></path><path d="M561.8 116.1c0-10.5-8.6-19.1-19.1-19.1h-61.8c-10.5 0-19.1 8.6-19.1 19.1v15.1c0 10.5 8.6 19.1 19.1 19.1h61.8c10.5 0 19.1-8.6 19.1-19.1v-15.1z" fill="#A93439" p-id="1166"></path><path d="M511.8 131.3c-118.9 0-220.2 75-259.3 180.3h518.6C732 206.3 630.7 131.3 511.8 131.3z" fill="#FF5959" p-id="1167"></path><path d="M513.3 239.8c-7.9 0-14.3-6.4-14.3-14.3v-53.8c0-7.9 6.4-14.3 14.3-14.3s14.3 6.4 14.3 14.3v53.8c0 7.9-6.4 14.3-14.3 14.3zM415 239.8c-7.9 0-14.3-6.4-14.3-14.3v-30.1c0-7.9 6.4-14.3 14.3-14.3s14.3 6.4 14.3 14.3v30.1c0.1 7.9-6.3 14.3-14.3 14.3zM611.5 239.8c-7.9 0-14.3-6.4-14.3-14.3v-30.1c0-7.9 6.4-14.3 14.3-14.3s14.3 6.4 14.3 14.3v30.1c0.1 7.9-6.4 14.3-14.3 14.3z" fill="" p-id="1168"></path><path d="M860.7 418.5H746.6V312H277v106.5H162.9c-21 0-38.2 17.2-38.2 38.2v445h774.2v-445c0-21-17.2-38.2-38.2-38.2z" fill="#FF5959" p-id="1169"></path><path d="M797 716.9h82.8v39.8H797zM168.1 813.2h82.8V853h-82.8zM151.2 647H234v39.8h-82.8zM289 553.4h82.8v39.8H289zM231.8 436.9h82.8v39.8h-82.8zM643 388.4h82.8v39.8H643zM570.2 528H653v39.8h-82.8zM660 627.1h82.8v39.8H660zM857.5 493.9h41.4v39.8h-41.4zM660 813.2h82.8V853H660zM277 312h469.5v60.6H277z" fill="" p-id="1170"></path><path d="M322.3 647h379v254.6h-379z" fill="#D1D3D3" p-id="1171"></path><path d="M322.3 711h379v28.6h-379zM322.3 798.9h379v28.6h-379z" fill="" p-id="1172"></path><path d="M612.4 503.1c0 55.6-45 100.6-100.6 100.6s-100.6-45-100.6-100.6V414c0-10.5 8.6-19.1 19.1-19.1h163c10.5 0 19.1 8.6 19.1 19.1v89.1z" fill="#FFB819" p-id="1173"></path><path d="M457.1 503.1c0 30.2 24.6 54.7 54.7 54.7s54.7-24.6 54.7-54.7v-52.8c0-7.4-6-13.4-13.4-13.4h-82.8c-7.4 0-13.4 6-13.4 13.4v52.8z" fill="#F2D383" p-id="1174"></path><path d="M819.6 323.7c0 10.5-8.6 19.1-19.1 19.1H223.2c-10.5 0-19.1-8.6-19.1-19.1v-40.6c0-10.5 8.6-19.1 19.1-19.1h577.3c10.5 0 19.1 8.6 19.1 19.1v40.6z" fill="#A93439" p-id="1175"></path><path d="M959.4 919.3c0 4.2-3.5 7.7-7.7 7.7H72c-4.2 0-7.7-3.5-7.7-7.7v-27.6c0-4.2 3.5-7.7 7.7-7.7h879.7c4.2 0 7.7 3.5 7.7 7.7v27.6z" fill="#333E48" p-id="1176"></path><path d="M283.1 884h457.4v43H283.1z" fill="#A4A9AD" p-id="1177"></path><path d="M936.4 884c0-45.7-37.1-82.8-82.8-82.8-45.7 0-82.8 37.1-82.8 82.8h165.6zM241.3 884c0-40.4-32.8-73.2-73.2-73.2S94.8 843.5 94.8 884h146.5z" fill="#00AD68" p-id="1178"></path><path d="M831 561.7c0 10.5-8.6 19.1-19.1 19.1h-99.6c-10.5 0-19.1-8.6-19.1-19.1v-48.4c0-10.5 8.6-19.1 19.1-19.1h99.6c10.5 0 19.1 8.6 19.1 19.1v48.4z" fill="#FFFFFF" p-id="1179"></path><path d="M811.9 494.2h-99.6c-10.5 0-19.1 8.6-19.1 19.1v25.8c0-10.5 8.6-19.1 19.1-19.1h99.6c10.5 0 19.1 8.6 19.1 19.1v-25.8c0-10.5-8.6-19.1-19.1-19.1z" fill="" p-id="1180"></path><path d="M712.3 508.5c-2.6 0-4.8 2.2-4.8 4.8v48.4c0 2.6 2.2 4.8 4.8 4.8h99.6c2.6 0 4.8-2.2 4.8-4.8v-48.4c0-2.6-2.2-4.8-4.8-4.8h-99.6z m99.6 86.6h-99.6c-18.4 0-33.4-15-33.4-33.4v-48.4c0-18.4 15-33.4 33.4-33.4h99.6c18.4 0 33.4 15 33.4 33.4v48.4c0 18.4-15 33.4-33.4 33.4z" fill="#A93439" p-id="1181"></path><path d="M192.6 561.7c0 10.5 8.6 19.1 19.1 19.1h99.6c10.5 0 19.1-8.6 19.1-19.1v-48.4c0-10.5-8.6-19.1-19.1-19.1h-99.6c-10.5 0-19.1 8.6-19.1 19.1v48.4z" fill="#FFFFFF" p-id="1182"></path><path d="M211.7 494.2h99.6c10.5 0 19.1 8.6 19.1 19.1v25.8c0-10.5-8.6-19.1-19.1-19.1h-99.6c-10.5 0-19.1 8.6-19.1 19.1v-25.8c0-10.5 8.6-19.1 19.1-19.1z" fill="" p-id="1183"></path><path d="M211.7 508.5c-2.6 0-4.8 2.2-4.8 4.8v48.4c0 2.6 2.2 4.8 4.8 4.8h99.6c2.6 0 4.8-2.2 4.8-4.8v-48.4c0-2.6-2.2-4.8-4.8-4.8h-99.6z m99.6 86.6h-99.6c-18.4 0-33.4-15-33.4-33.4v-48.4c0-18.4 15-33.4 33.4-33.4h99.6c18.4 0 33.4 15 33.4 33.4v48.4c0 18.4-15 33.4-33.4 33.4z" fill="#A93439" p-id="1184"></path></svg>