<?xml version="1.0" standalone="no"?><!DOCTYPE svg PUBLIC "-//W3C//DTD SVG 1.1//EN" "http://www.w3.org/Graphics/SVG/1.1/DTD/svg11.dtd"><svg t="1582744289132" class="icon" viewBox="0 0 1024 1024" version="1.1" xmlns="http://www.w3.org/2000/svg" p-id="1607" xmlns:xlink="http://www.w3.org/1999/xlink" width="200" height="200"><defs><style type="text/css">@font-face { font-family: Multicolore; font-style: normal; font-weight: 400; src: local("Multicolore"), local("Multicolore"), url("chrome-extension://hfapbcheiepjppjbnkphkmegjlipojba/fonts/Multicolore.ttf.woff") format("woff"); }
@font-face { font-family: "PT Sans"; font-style: normal; font-weight: 400; src: local("PT Sans"), local("PTSans-Regular"), url("chrome-extension://hfapbcheiepjppjbnkphkmegjlipojba/fonts/ptsans-v8/fhNmDCnjccoUYyU4ZASaLVKPGs1ZzpMvnHX-7fPOuAc.woff2") format("woff2"); unicode-range: U+460-52F, U+20B4, U+2DE0-2DFF, U+A640-A69F; }
@font-face { font-family: "PT Sans"; font-style: normal; font-weight: 400; src: local("PT Sans"), local("PTSans-Regular"), url("chrome-extension://hfapbcheiepjppjbnkphkmegjlipojba/fonts/ptsans-v8/BJVWev7_auVaQ__OU8Qih1KPGs1ZzpMvnHX-7fPOuAc.woff2") format("woff2"); unicode-range: U+400-45F, U+490-491, U+4B0-4B1, U+2116; }
@font-face { font-family: "PT Sans"; font-style: normal; font-weight: 400; src: local("PT Sans"), local("PTSans-Regular"), url("chrome-extension://hfapbcheiepjppjbnkphkmegjlipojba/fonts/ptsans-v8/oysROHFTu1eTZ74Hcf8V-VKPGs1ZzpMvnHX-7fPOuAc.woff2") format("woff2"); unicode-range: U+100-24F, U+1E00-1EFF, U+20A0-20AB, U+20AD-20CF, U+2C60-2C7F, U+A720-A7FF; }
@font-face { font-family: "PT Sans"; font-style: normal; font-weight: 400; src: local("PT Sans"), local("PTSans-Regular"), url("chrome-extension://hfapbcheiepjppjbnkphkmegjlipojba/fonts/ptsans-v8/CWlc_g68BGYDSGdpJvpktgLUuEpTyoUstqEm5AMlJo4.woff2") format("woff2"); unicode-range: U+0-FF, U+131, U+152-153, U+2C6, U+2DA, U+2DC, U+2000-206F, U+2074, U+20AC, U+2212, U+2215; }
@font-face { font-family: "PT Sans"; font-style: normal; font-weight: 700; src: local("PT Sans Bold"), local("PTSans-Bold"), url("chrome-extension://hfapbcheiepjppjbnkphkmegjlipojba/fonts/ptsans-v8/kTYfCWJhlldPf5LnG4ZnHAsYbbCjybiHxArTLjt7FRU.woff2") format("woff2"); unicode-range: U+460-52F, U+20B4, U+2DE0-2DFF, U+A640-A69F; }
@font-face { font-family: "PT Sans"; font-style: normal; font-weight: 700; src: local("PT Sans Bold"), local("PTSans-Bold"), url("chrome-extension://hfapbcheiepjppjbnkphkmegjlipojba/fonts/ptsans-v8/g46X4VH_KHOWAAa-HpnGPgsYbbCjybiHxArTLjt7FRU.woff2") format("woff2"); unicode-range: U+400-45F, U+490-491, U+4B0-4B1, U+2116; }
@font-face { font-family: "PT Sans"; font-style: normal; font-weight: 700; src: local("PT Sans Bold"), local("PTSans-Bold"), url("chrome-extension://hfapbcheiepjppjbnkphkmegjlipojba/fonts/ptsans-v8/hpORcvLZtemlH8gI-1S-7gsYbbCjybiHxArTLjt7FRU.woff2") format("woff2"); unicode-range: U+100-24F, U+1E00-1EFF, U+20A0-20AB, U+20AD-20CF, U+2C60-2C7F, U+A720-A7FF; }
@font-face { font-family: "PT Sans"; font-style: normal; font-weight: 700; src: local("PT Sans Bold"), local("PTSans-Bold"), url("chrome-extension://hfapbcheiepjppjbnkphkmegjlipojba/fonts/ptsans-v8/0XxGQsSc1g4rdRdjJKZrNAzyDMXhdD8sAj6OAJTFsBI.woff2") format("woff2"); unicode-range: U+0-FF, U+131, U+152-153, U+2C6, U+2DA, U+2DC, U+2000-206F, U+2074, U+20AC, U+2212, U+2215; }
@font-face { font-family: "Open Sans"; font-style: normal; font-weight: 400; src: local("Open Sans"), local("OpenSans"), url("chrome-extension://hfapbcheiepjppjbnkphkmegjlipojba/fonts/open-sans-v13-latin-regular.woff2") format("woff2"); }
@font-face { font-family: "Open Sans"; font-style: normal; font-weight: 600; src: local("Open Sans Semibold"), local("OpenSans-Semibold"), url("chrome-extension://hfapbcheiepjppjbnkphkmegjlipojba/fonts/open-sans-v13-latin-600.woff2") format("woff2"); }
@font-face { font-family: "Open Sans"; font-style: normal; font-weight: 700; src: local("Open Sans Bold"), local("OpenSans-Bold"), url("chrome-extension://hfapbcheiepjppjbnkphkmegjlipojba/fonts/open-sans-v13-latin-700.woff2") format("woff2"); }
@font-face { font-family: FontAwesome; font-style: normal; src: local("Font Awesome"), local("FontAwesome"), url("chrome-extension://hfapbcheiepjppjbnkphkmegjlipojba/fonts/fontawesome-webfont.woff2") format("woff2"); }
@font-face { font-family: Roboto; font-style: normal; font-weight: 300; src: local("Roboto"), local("Roboto"), url("chrome-extension://hfapbcheiepjppjbnkphkmegjlipojba/fonts/roboto/KFOlCnqEu92Fr1MmYUtfCxc4AMP6lbqE.woff2") format("woff2"); unicode-range: U+460-52F, U+1C80-1C88, U+20B4, U+2DE0-2DFF, U+A640-A69F, U+FE2E-FE2F; }
@font-face { font-family: Roboto; font-style: normal; font-weight: 500; src: local("Roboto Medium"), local("Roboto-Medium"), url("chrome-extension://hfapbcheiepjppjbnkphkmegjlipojba/fonts/roboto/KFOlCnqEu92Fr1MmEU9fCRc4AMP6lbBP.woff2") format("woff2"); unicode-range: U+460-52F, U+1C80-1C88, U+20B4, U+2DE0-2DFF, U+A640-A69F, U+FE2E-FE2F; }
@font-face { font-family: Roboto; font-style: normal; font-weight: 500; src: local("Roboto Medium"), local("Roboto-Medium"), url("chrome-extension://hfapbcheiepjppjbnkphkmegjlipojba/fonts/roboto/KFOlCnqEu92Fr1MmEU9fABc4AMP6lbBP.woff2") format("woff2"); unicode-range: U+400-45F, U+490-491, U+4B0-4B1, U+2116; }
@font-face { font-family: Roboto; font-style: normal; font-weight: 500; src: local("Roboto Medium"), local("Roboto-Medium"), url("chrome-extension://hfapbcheiepjppjbnkphkmegjlipojba/fonts/roboto/KFOlCnqEu92Fr1MmEU9fCBc4AMP6lbBP.woff2") format("woff2"); unicode-range: U+1F00-1FFF; }
@font-face { font-family: Roboto; font-style: normal; font-weight: 500; src: local("Roboto Medium"), local("Roboto-Medium"), url("chrome-extension://hfapbcheiepjppjbnkphkmegjlipojba/fonts/roboto/KFOlCnqEu92Fr1MmEU9fBxc4AMP6lbBP.woff2") format("woff2"); unicode-range: U+370-3FF; }
@font-face { font-family: Roboto; font-style: normal; font-weight: 500; src: local("Roboto Medium"), local("Roboto-Medium"), url("chrome-extension://hfapbcheiepjppjbnkphkmegjlipojba/fonts/roboto/KFOlCnqEu92Fr1MmEU9fCxc4AMP6lbBP.woff2") format("woff2"); unicode-range: U+102-103, U+110-111, U+1EA0-1EF9, U+20AB; }
@font-face { font-family: Roboto; font-style: normal; font-weight: 500; src: local("Roboto Medium"), local("Roboto-Medium"), url("chrome-extension://hfapbcheiepjppjbnkphkmegjlipojba/fonts/roboto/KFOlCnqEu92Fr1MmEU9fChc4AMP6lbBP.woff2") format("woff2"); unicode-range: U+100-24F, U+259, U+1E00-1EFF, U+2020, U+20A0-20AB, U+20AD-20CF, U+2113, U+2C60-2C7F, U+A720-A7FF; }
@font-face { font-family: Roboto; font-style: normal; font-weight: 500; src: local("Roboto Medium"), local("Roboto-Medium"), url("chrome-extension://hfapbcheiepjppjbnkphkmegjlipojba/fonts/roboto/KFOlCnqEu92Fr1MmEU9fBBc4AMP6lQ.woff2") format("woff2"); unicode-range: U+0-FF, U+131, U+152-153, U+2BB-2BC, U+2C6, U+2DA, U+2DC, U+2000-206F, U+2074, U+20AC, U+2122, U+2191, U+2193, U+2212, U+2215, U+FEFF, U+FFFD; }
@font-face { font-family: Roboto; font-style: normal; font-weight: 700; src: local("Roboto Bold"), local("Roboto-Bold"), url("chrome-extension://hfapbcheiepjppjbnkphkmegjlipojba/fonts/roboto/KFOlCnqEu92Fr1MmWUlfCRc4AMP6lbBP.woff2") format("woff2"); unicode-range: U+460-52F, U+1C80-1C88, U+20B4, U+2DE0-2DFF, U+A640-A69F, U+FE2E-FE2F; }
@font-face { font-family: Roboto; font-style: normal; font-weight: 700; src: local("Roboto Bold"), local("Roboto-Bold"), url("chrome-extension://hfapbcheiepjppjbnkphkmegjlipojba/fonts/roboto/KFOlCnqEu92Fr1MmWUlfABc4AMP6lbBP.woff2") format("woff2"); unicode-range: U+400-45F, U+490-491, U+4B0-4B1, U+2116; }
@font-face { font-family: Roboto; font-style: normal; font-weight: 700; src: local("Roboto Bold"), local("Roboto-Bold"), url("chrome-extension://hfapbcheiepjppjbnkphkmegjlipojba/fonts/roboto/KFOlCnqEu92Fr1MmWUlfCBc4AMP6lbBP.woff2") format("woff2"); unicode-range: U+1F00-1FFF; }
@font-face { font-family: Roboto; font-style: normal; font-weight: 700; src: local("Roboto Bold"), local("Roboto-Bold"), url("chrome-extension://hfapbcheiepjppjbnkphkmegjlipojba/fonts/roboto/KFOlCnqEu92Fr1MmWUlfBxc4AMP6lbBP.woff2") format("woff2"); unicode-range: U+370-3FF; }
@font-face { font-family: Roboto; font-style: normal; font-weight: 700; src: local("Roboto Bold"), local("Roboto-Bold"), url("chrome-extension://hfapbcheiepjppjbnkphkmegjlipojba/fonts/roboto/KFOlCnqEu92Fr1MmWUlfCxc4AMP6lbBP.woff2") format("woff2"); unicode-range: U+102-103, U+110-111, U+1EA0-1EF9, U+20AB; }
@font-face { font-family: Roboto; font-style: normal; font-weight: 700; src: local("Roboto Bold"), local("Roboto-Bold"), url("chrome-extension://hfapbcheiepjppjbnkphkmegjlipojba/fonts/roboto/KFOlCnqEu92Fr1MmWUlfChc4AMP6lbBP.woff2") format("woff2"); unicode-range: U+100-24F, U+259, U+1E00-1EFF, U+2020, U+20A0-20AB, U+20AD-20CF, U+2113, U+2C60-2C7F, U+A720-A7FF; }
@font-face { font-family: Roboto; font-style: normal; font-weight: 700; src: local("Roboto Bold"), local("Roboto-Bold"), url("chrome-extension://hfapbcheiepjppjbnkphkmegjlipojba/fonts/roboto/KFOlCnqEu92Fr1MmWUlfBBc4AMP6lQ.woff2") format("woff2"); unicode-range: U+0-FF, U+131, U+152-153, U+2BB-2BC, U+2C6, U+2DA, U+2DC, U+2000-206F, U+2074, U+20AC, U+2122, U+2191, U+2193, U+2212, U+2215, U+FEFF, U+FFFD; }
@font-face { font-family: Roboto; font-style: normal; font-weight: 900; src: local("Roboto Black"), local("Roboto-Black"), url("chrome-extension://hfapbcheiepjppjbnkphkmegjlipojba/fonts/roboto/KFOlCnqEu92Fr1MmYUtfCRc4AMP6lbBP.woff2") format("woff2"); unicode-range: U+460-52F, U+1C80-1C88, U+20B4, U+2DE0-2DFF, U+A640-A69F, U+FE2E-FE2F; }
@font-face { font-family: Roboto; font-style: normal; font-weight: 900; src: local("Roboto Black"), local("Roboto-Black"), url("chrome-extension://hfapbcheiepjppjbnkphkmegjlipojba/fonts/roboto/KFOlCnqEu92Fr1MmYUtfABc4AMP6lbBP.woff2") format("woff2"); unicode-range: U+400-45F, U+490-491, U+4B0-4B1, U+2116; }
@font-face { font-family: Roboto; font-style: normal; font-weight: 900; src: local("Roboto Black"), local("Roboto-Black"), url("chrome-extension://hfapbcheiepjppjbnkphkmegjlipojba/fonts/roboto/KFOlCnqEu92Fr1MmYUtfCBc4AMP6lbBP.woff2") format("woff2"); unicode-range: U+1F00-1FFF; }
@font-face { font-family: Roboto; font-style: normal; font-weight: 900; src: local("Roboto Black"), local("Roboto-Black"), url("chrome-extension://hfapbcheiepjppjbnkphkmegjlipojba/fonts/roboto/KFOlCnqEu92Fr1MmYUtfBxc4AMP6lbBP.woff2") format("woff2"); unicode-range: U+370-3FF; }
@font-face { font-family: Roboto; font-style: normal; font-weight: 900; src: local("Roboto Black"), local("Roboto-Black"), url("chrome-extension://hfapbcheiepjppjbnkphkmegjlipojba/fonts/roboto/KFOlCnqEu92Fr1MmYUtfCxc4AMP6lbBP.woff2") format("woff2"); unicode-range: U+102-103, U+110-111, U+1EA0-1EF9, U+20AB; }
@font-face { font-family: Roboto; font-style: normal; font-weight: 900; src: local("Roboto Black"), local("Roboto-Black"), url("chrome-extension://hfapbcheiepjppjbnkphkmegjlipojba/fonts/roboto/KFOlCnqEu92Fr1MmYUtfChc4AMP6lbBP.woff2") format("woff2"); unicode-range: U+100-24F, U+259, U+1E00-1EFF, U+2020, U+20A0-20AB, U+20AD-20CF, U+2113, U+2C60-2C7F, U+A720-A7FF; }
@font-face { font-family: Roboto; font-style: normal; font-weight: 900; src: local("Roboto Black"), local("Roboto-Black"), url("chrome-extension://hfapbcheiepjppjbnkphkmegjlipojba/fonts/roboto/KFOlCnqEu92Fr1MmYUtfBBc4AMP6lQ.woff2") format("woff2"); unicode-range: U+0-FF, U+131, U+152-153, U+2BB-2BC, U+2C6, U+2DA, U+2DC, U+2000-206F, U+2074, U+20AC, U+2122, U+2191, U+2193, U+2212, U+2215, U+FEFF, U+FFFD; }
@font-face { font-family: Montserrat; font-style: normal; font-weight: 400; src: local("Montserrat Regular"), local("Montserrat-Regular"), url("chrome-extension://hfapbcheiepjppjbnkphkmegjlipojba/fonts/montserrat/Montserrat-Regular.woff2") format("woff2"); }
@font-face { font-family: Montserrat; font-style: normal; font-weight: 500; src: local("Montserrat Medium"), local("Montserrat-Medium"), url("chrome-extension://hfapbcheiepjppjbnkphkmegjlipojba/fonts/montserrat/Montserrat-Medium.woff2") format("woff2"); }
@font-face { font-family: Montserrat; font-style: normal; font-weight: 600; src: local("Montserrat SemiBold"), local("Montserrat-SemiBold"), url("chrome-extension://hfapbcheiepjppjbnkphkmegjlipojba/fonts/montserrat/Montserrat-SemiBold.woff2") format("woff2"); }
@font-face { font-family: Montserrat; font-style: normal; font-weight: 700; src: local("Montserrat Bold"), local("Montserrat-Bold"), url("chrome-extension://hfapbcheiepjppjbnkphkmegjlipojba/fonts/montserrat/Montserrat-Bold.woff2") format("woff2"); }
@font-face { font-family: Montserrat; font-style: normal; font-weight: 800; src: local("Montserrat ExtraBold"), local("Montserrat-ExtraBold"), url("chrome-extension://hfapbcheiepjppjbnkphkmegjlipojba/fonts/montserrat/Montserrat-ExtraBold.woff2") format("woff2"); }
</style></defs><path d="M835.7 313.3c-1.4-5.1-6.9-9.3-12.2-9.3h-56.8c-5.3 0-10.8 4.2-12.2 9.3l-12.7 46c-1.4 5.1 1.8 9.3 7.1 9.3h92.5c5.3 0 8.5-4.2 7.1-9.3l-12.8-46z" fill="#FF8189" p-id="1608"></path><path d="M192.7 293.5h48.6V342h-48.6z" fill="#A4A9AD" p-id="1609"></path><path d="M192.7 293.5h48.6v21.2h-48.6z" fill="" p-id="1610"></path><path d="M310.2 293.5h48.6V342h-48.6z" fill="#A4A9AD" p-id="1611"></path><path d="M310.2 293.5h48.6v21.2h-48.6z" fill="" p-id="1612"></path><path d="M427.6 293.5h48.6V342h-48.6z" fill="#A4A9AD" p-id="1613"></path><path d="M427.6 293.5h48.6v21.2h-48.6z" fill="" p-id="1614"></path><path d="M95.2 695.1V390.2c0-26.5 21.7-48.1 48.1-48.1h737.1c26.5 0 48.1 21.7 48.1 48.1V695H95.2z" fill="#FF5959" p-id="1615"></path><path d="M95.2 530.4h833.4v37.8H95.2z" fill="#D1D3D3" p-id="1616"></path><path d="M958.9 709.6c0 9.9-8.1 17.9-17.9 17.9h-40.3c-9.9 0-17.9-8.1-17.9-17.9v-29.1c0-9.9 8.1-17.9 17.9-17.9H941c9.9 0 17.9 8.1 17.9 17.9v29.1zM133.3 709.6c0 9.9-8.1 17.9-17.9 17.9H82.7c-9.9 0-17.9-8.1-17.9-17.9v-29.1c0-9.9 8.1-17.9 17.9-17.9h32.6c9.9 0 17.9 8.1 17.9 17.9l0.1 29.1z" fill="#A4A9AD" p-id="1617"></path><path d="M410.7 695.1c0-64.7-52.5-117.2-117.2-117.2s-117.2 52.5-117.2 117.2h234.4z" fill="" p-id="1618"></path><path d="M293.4 695.1m-97 0a97 97 0 1 0 194 0 97 97 0 1 0-194 0Z" fill="#333E48" p-id="1619"></path><path d="M293.4 695.1m-49.2 0a49.2 49.2 0 1 0 98.4 0 49.2 49.2 0 1 0-98.4 0Z" fill="#A4A9AD" p-id="1620"></path><path d="M847.5 695.1c0-64.7-52.5-117.2-117.2-117.2s-117.2 52.5-117.2 117.2h234.4z" fill="" p-id="1621"></path><path d="M730.3 695.1m-97 0a97 97 0 1 0 194 0 97 97 0 1 0-194 0Z" fill="#333E48" p-id="1622"></path><path d="M730.3 695.1m-49.2 0a49.2 49.2 0 1 0 98.4 0 49.2 49.2 0 1 0-98.4 0Z" fill="#A4A9AD" p-id="1623"></path><path d="M730.3 251.2c0-10.6-8.7-19.3-19.3-19.3H159.5c-10.6 0-19.3 8.7-19.3 19.3v23.1c0 10.6 8.7 19.3 19.3 19.3h551.6c10.6 0 19.3-8.7 19.3-19.3l-0.1-23.1z" fill="#D1D3D3" p-id="1624"></path><path d="M739.9 463.9c0 8.5 6.9 15.4 15.4 15.4h112.1c8.5 0 15.4-6.9 15.4-15.4v-66.8c0-8.5-6.9-15.4-15.4-15.4H755.3c-8.5 0-15.4 6.9-15.4 15.4v66.8z" fill="#333E48" p-id="1625"></path><path d="M867.4 381.8H755.3c-8.5 0-15.4 6.9-15.4 15.4v19.9c0-8.5 6.9-15.4 15.4-15.4h112.1c8.5 0 15.4 6.9 15.4 15.4v-19.9c0.1-8.5-6.9-15.4-15.4-15.4z" fill="" p-id="1626"></path><path d="M599.6 463.9c0 8.5 6.9 15.4 15.4 15.4h65.9c8.5 0 15.4-6.9 15.4-15.4v-66.8c0-8.5-6.9-15.4-15.4-15.4H615c-8.5 0-15.4 6.9-15.4 15.4v66.8z" fill="#333E48" p-id="1627"></path><path d="M680.9 381.8H615c-8.5 0-15.4 6.9-15.4 15.4v19.9c0-8.5 6.9-15.4 15.4-15.4h65.9c8.5 0 15.4 6.9 15.4 15.4v-19.9c0-8.5-6.9-15.4-15.4-15.4z" fill="" p-id="1628"></path><path d="M439.6 507.3h144.6v187.8H439.6z" fill="#A4A9AD" p-id="1629"></path><path d="M483.2 556.7m-13.5 0a13.5 13.5 0 1 0 27 0 13.5 13.5 0 1 0-27 0Z" fill="#D1D3D3" p-id="1630"></path><path d="M540.5 556.7m-13.5 0a13.5 13.5 0 1 0 27 0 13.5 13.5 0 1 0-27 0Z" fill="#D1D3D3" p-id="1631"></path><path d="M540.5 618.5h-57.3c-8 0-14.4-6.5-14.4-14.4s6.5-14.4 14.4-14.4h57.3c8 0 14.4 6.5 14.4 14.4s-6.4 14.4-14.4 14.4zM540.5 662.6h-57.3c-8 0-14.4-6.5-14.4-14.4s6.5-14.4 14.4-14.4h57.3c8 0 14.4 6.5 14.4 14.4s-6.4 14.4-14.4 14.4z" fill="#D1D3D3" p-id="1632"></path><path d="M928.6 662.6h-41.2c-5.3 0-9.6-4.3-9.6-9.6v-24.4c0-5.3 4.3-9.6 9.6-9.6h41.2v43.6zM95.2 662.6h41.2c5.3 0 9.6-4.3 9.6-9.6v-24.4c0-5.3-4.3-9.6-9.6-9.6H95.2v43.6zM185.4 416.1h317V445h-317z" fill="#FFB819" p-id="1633"></path><path d="M528.5 405.5c0-5.3-4.3-9.6-9.6-9.6h-32.8c-5.3 0-9.6 4.3-9.6 9.6v50.1c0 5.3 4.3 9.6 9.6 9.6h32.8c5.3 0 9.6-4.3 9.6-9.6v-50.1zM211.4 405.5c0-5.3-4.3-9.6-9.6-9.6H169c-5.3 0-9.6 4.3-9.6 9.6v50.1c0 5.3 4.3 9.6 9.6 9.6h32.8c5.3 0 9.6-4.3 9.6-9.6v-50.1z" fill="#D1D3D3" p-id="1634"></path></svg>