<?xml version="1.0" standalone="no"?><!DOCTYPE svg PUBLIC "-//W3C//DTD SVG 1.1//EN" "http://www.w3.org/Graphics/SVG/1.1/DTD/svg11.dtd"><svg t="1582744256706" class="icon" viewBox="0 0 1024 1024" version="1.1" xmlns="http://www.w3.org/2000/svg" p-id="1310" xmlns:xlink="http://www.w3.org/1999/xlink" width="200" height="200"><defs><style type="text/css">@font-face { font-family: Multicolore; font-style: normal; font-weight: 400; src: local("Multicolore"), local("Multicolore"), url("chrome-extension://hfapbcheiepjppjbnkphkmegjlipojba/fonts/Multicolore.ttf.woff") format("woff"); }
@font-face { font-family: "PT Sans"; font-style: normal; font-weight: 400; src: local("PT Sans"), local("PTSans-Regular"), url("chrome-extension://hfapbcheiepjppjbnkphkmegjlipojba/fonts/ptsans-v8/fhNmDCnjccoUYyU4ZASaLVKPGs1ZzpMvnHX-7fPOuAc.woff2") format("woff2"); unicode-range: U+460-52F, U+20B4, U+2DE0-2DFF, U+A640-A69F; }
@font-face { font-family: "PT Sans"; font-style: normal; font-weight: 400; src: local("PT Sans"), local("PTSans-Regular"), url("chrome-extension://hfapbcheiepjppjbnkphkmegjlipojba/fonts/ptsans-v8/BJVWev7_auVaQ__OU8Qih1KPGs1ZzpMvnHX-7fPOuAc.woff2") format("woff2"); unicode-range: U+400-45F, U+490-491, U+4B0-4B1, U+2116; }
@font-face { font-family: "PT Sans"; font-style: normal; font-weight: 400; src: local("PT Sans"), local("PTSans-Regular"), url("chrome-extension://hfapbcheiepjppjbnkphkmegjlipojba/fonts/ptsans-v8/oysROHFTu1eTZ74Hcf8V-VKPGs1ZzpMvnHX-7fPOuAc.woff2") format("woff2"); unicode-range: U+100-24F, U+1E00-1EFF, U+20A0-20AB, U+20AD-20CF, U+2C60-2C7F, U+A720-A7FF; }
@font-face { font-family: "PT Sans"; font-style: normal; font-weight: 400; src: local("PT Sans"), local("PTSans-Regular"), url("chrome-extension://hfapbcheiepjppjbnkphkmegjlipojba/fonts/ptsans-v8/CWlc_g68BGYDSGdpJvpktgLUuEpTyoUstqEm5AMlJo4.woff2") format("woff2"); unicode-range: U+0-FF, U+131, U+152-153, U+2C6, U+2DA, U+2DC, U+2000-206F, U+2074, U+20AC, U+2212, U+2215; }
@font-face { font-family: "PT Sans"; font-style: normal; font-weight: 700; src: local("PT Sans Bold"), local("PTSans-Bold"), url("chrome-extension://hfapbcheiepjppjbnkphkmegjlipojba/fonts/ptsans-v8/kTYfCWJhlldPf5LnG4ZnHAsYbbCjybiHxArTLjt7FRU.woff2") format("woff2"); unicode-range: U+460-52F, U+20B4, U+2DE0-2DFF, U+A640-A69F; }
@font-face { font-family: "PT Sans"; font-style: normal; font-weight: 700; src: local("PT Sans Bold"), local("PTSans-Bold"), url("chrome-extension://hfapbcheiepjppjbnkphkmegjlipojba/fonts/ptsans-v8/g46X4VH_KHOWAAa-HpnGPgsYbbCjybiHxArTLjt7FRU.woff2") format("woff2"); unicode-range: U+400-45F, U+490-491, U+4B0-4B1, U+2116; }
@font-face { font-family: "PT Sans"; font-style: normal; font-weight: 700; src: local("PT Sans Bold"), local("PTSans-Bold"), url("chrome-extension://hfapbcheiepjppjbnkphkmegjlipojba/fonts/ptsans-v8/hpORcvLZtemlH8gI-1S-7gsYbbCjybiHxArTLjt7FRU.woff2") format("woff2"); unicode-range: U+100-24F, U+1E00-1EFF, U+20A0-20AB, U+20AD-20CF, U+2C60-2C7F, U+A720-A7FF; }
@font-face { font-family: "PT Sans"; font-style: normal; font-weight: 700; src: local("PT Sans Bold"), local("PTSans-Bold"), url("chrome-extension://hfapbcheiepjppjbnkphkmegjlipojba/fonts/ptsans-v8/0XxGQsSc1g4rdRdjJKZrNAzyDMXhdD8sAj6OAJTFsBI.woff2") format("woff2"); unicode-range: U+0-FF, U+131, U+152-153, U+2C6, U+2DA, U+2DC, U+2000-206F, U+2074, U+20AC, U+2212, U+2215; }
@font-face { font-family: "Open Sans"; font-style: normal; font-weight: 400; src: local("Open Sans"), local("OpenSans"), url("chrome-extension://hfapbcheiepjppjbnkphkmegjlipojba/fonts/open-sans-v13-latin-regular.woff2") format("woff2"); }
@font-face { font-family: "Open Sans"; font-style: normal; font-weight: 600; src: local("Open Sans Semibold"), local("OpenSans-Semibold"), url("chrome-extension://hfapbcheiepjppjbnkphkmegjlipojba/fonts/open-sans-v13-latin-600.woff2") format("woff2"); }
@font-face { font-family: "Open Sans"; font-style: normal; font-weight: 700; src: local("Open Sans Bold"), local("OpenSans-Bold"), url("chrome-extension://hfapbcheiepjppjbnkphkmegjlipojba/fonts/open-sans-v13-latin-700.woff2") format("woff2"); }
@font-face { font-family: FontAwesome; font-style: normal; src: local("Font Awesome"), local("FontAwesome"), url("chrome-extension://hfapbcheiepjppjbnkphkmegjlipojba/fonts/fontawesome-webfont.woff2") format("woff2"); }
@font-face { font-family: Roboto; font-style: normal; font-weight: 300; src: local("Roboto"), local("Roboto"), url("chrome-extension://hfapbcheiepjppjbnkphkmegjlipojba/fonts/roboto/KFOlCnqEu92Fr1MmYUtfCxc4AMP6lbqE.woff2") format("woff2"); unicode-range: U+460-52F, U+1C80-1C88, U+20B4, U+2DE0-2DFF, U+A640-A69F, U+FE2E-FE2F; }
@font-face { font-family: Roboto; font-style: normal; font-weight: 500; src: local("Roboto Medium"), local("Roboto-Medium"), url("chrome-extension://hfapbcheiepjppjbnkphkmegjlipojba/fonts/roboto/KFOlCnqEu92Fr1MmEU9fCRc4AMP6lbBP.woff2") format("woff2"); unicode-range: U+460-52F, U+1C80-1C88, U+20B4, U+2DE0-2DFF, U+A640-A69F, U+FE2E-FE2F; }
@font-face { font-family: Roboto; font-style: normal; font-weight: 500; src: local("Roboto Medium"), local("Roboto-Medium"), url("chrome-extension://hfapbcheiepjppjbnkphkmegjlipojba/fonts/roboto/KFOlCnqEu92Fr1MmEU9fABc4AMP6lbBP.woff2") format("woff2"); unicode-range: U+400-45F, U+490-491, U+4B0-4B1, U+2116; }
@font-face { font-family: Roboto; font-style: normal; font-weight: 500; src: local("Roboto Medium"), local("Roboto-Medium"), url("chrome-extension://hfapbcheiepjppjbnkphkmegjlipojba/fonts/roboto/KFOlCnqEu92Fr1MmEU9fCBc4AMP6lbBP.woff2") format("woff2"); unicode-range: U+1F00-1FFF; }
@font-face { font-family: Roboto; font-style: normal; font-weight: 500; src: local("Roboto Medium"), local("Roboto-Medium"), url("chrome-extension://hfapbcheiepjppjbnkphkmegjlipojba/fonts/roboto/KFOlCnqEu92Fr1MmEU9fBxc4AMP6lbBP.woff2") format("woff2"); unicode-range: U+370-3FF; }
@font-face { font-family: Roboto; font-style: normal; font-weight: 500; src: local("Roboto Medium"), local("Roboto-Medium"), url("chrome-extension://hfapbcheiepjppjbnkphkmegjlipojba/fonts/roboto/KFOlCnqEu92Fr1MmEU9fCxc4AMP6lbBP.woff2") format("woff2"); unicode-range: U+102-103, U+110-111, U+1EA0-1EF9, U+20AB; }
@font-face { font-family: Roboto; font-style: normal; font-weight: 500; src: local("Roboto Medium"), local("Roboto-Medium"), url("chrome-extension://hfapbcheiepjppjbnkphkmegjlipojba/fonts/roboto/KFOlCnqEu92Fr1MmEU9fChc4AMP6lbBP.woff2") format("woff2"); unicode-range: U+100-24F, U+259, U+1E00-1EFF, U+2020, U+20A0-20AB, U+20AD-20CF, U+2113, U+2C60-2C7F, U+A720-A7FF; }
@font-face { font-family: Roboto; font-style: normal; font-weight: 500; src: local("Roboto Medium"), local("Roboto-Medium"), url("chrome-extension://hfapbcheiepjppjbnkphkmegjlipojba/fonts/roboto/KFOlCnqEu92Fr1MmEU9fBBc4AMP6lQ.woff2") format("woff2"); unicode-range: U+0-FF, U+131, U+152-153, U+2BB-2BC, U+2C6, U+2DA, U+2DC, U+2000-206F, U+2074, U+20AC, U+2122, U+2191, U+2193, U+2212, U+2215, U+FEFF, U+FFFD; }
@font-face { font-family: Roboto; font-style: normal; font-weight: 700; src: local("Roboto Bold"), local("Roboto-Bold"), url("chrome-extension://hfapbcheiepjppjbnkphkmegjlipojba/fonts/roboto/KFOlCnqEu92Fr1MmWUlfCRc4AMP6lbBP.woff2") format("woff2"); unicode-range: U+460-52F, U+1C80-1C88, U+20B4, U+2DE0-2DFF, U+A640-A69F, U+FE2E-FE2F; }
@font-face { font-family: Roboto; font-style: normal; font-weight: 700; src: local("Roboto Bold"), local("Roboto-Bold"), url("chrome-extension://hfapbcheiepjppjbnkphkmegjlipojba/fonts/roboto/KFOlCnqEu92Fr1MmWUlfABc4AMP6lbBP.woff2") format("woff2"); unicode-range: U+400-45F, U+490-491, U+4B0-4B1, U+2116; }
@font-face { font-family: Roboto; font-style: normal; font-weight: 700; src: local("Roboto Bold"), local("Roboto-Bold"), url("chrome-extension://hfapbcheiepjppjbnkphkmegjlipojba/fonts/roboto/KFOlCnqEu92Fr1MmWUlfCBc4AMP6lbBP.woff2") format("woff2"); unicode-range: U+1F00-1FFF; }
@font-face { font-family: Roboto; font-style: normal; font-weight: 700; src: local("Roboto Bold"), local("Roboto-Bold"), url("chrome-extension://hfapbcheiepjppjbnkphkmegjlipojba/fonts/roboto/KFOlCnqEu92Fr1MmWUlfBxc4AMP6lbBP.woff2") format("woff2"); unicode-range: U+370-3FF; }
@font-face { font-family: Roboto; font-style: normal; font-weight: 700; src: local("Roboto Bold"), local("Roboto-Bold"), url("chrome-extension://hfapbcheiepjppjbnkphkmegjlipojba/fonts/roboto/KFOlCnqEu92Fr1MmWUlfCxc4AMP6lbBP.woff2") format("woff2"); unicode-range: U+102-103, U+110-111, U+1EA0-1EF9, U+20AB; }
@font-face { font-family: Roboto; font-style: normal; font-weight: 700; src: local("Roboto Bold"), local("Roboto-Bold"), url("chrome-extension://hfapbcheiepjppjbnkphkmegjlipojba/fonts/roboto/KFOlCnqEu92Fr1MmWUlfChc4AMP6lbBP.woff2") format("woff2"); unicode-range: U+100-24F, U+259, U+1E00-1EFF, U+2020, U+20A0-20AB, U+20AD-20CF, U+2113, U+2C60-2C7F, U+A720-A7FF; }
@font-face { font-family: Roboto; font-style: normal; font-weight: 700; src: local("Roboto Bold"), local("Roboto-Bold"), url("chrome-extension://hfapbcheiepjppjbnkphkmegjlipojba/fonts/roboto/KFOlCnqEu92Fr1MmWUlfBBc4AMP6lQ.woff2") format("woff2"); unicode-range: U+0-FF, U+131, U+152-153, U+2BB-2BC, U+2C6, U+2DA, U+2DC, U+2000-206F, U+2074, U+20AC, U+2122, U+2191, U+2193, U+2212, U+2215, U+FEFF, U+FFFD; }
@font-face { font-family: Roboto; font-style: normal; font-weight: 900; src: local("Roboto Black"), local("Roboto-Black"), url("chrome-extension://hfapbcheiepjppjbnkphkmegjlipojba/fonts/roboto/KFOlCnqEu92Fr1MmYUtfCRc4AMP6lbBP.woff2") format("woff2"); unicode-range: U+460-52F, U+1C80-1C88, U+20B4, U+2DE0-2DFF, U+A640-A69F, U+FE2E-FE2F; }
@font-face { font-family: Roboto; font-style: normal; font-weight: 900; src: local("Roboto Black"), local("Roboto-Black"), url("chrome-extension://hfapbcheiepjppjbnkphkmegjlipojba/fonts/roboto/KFOlCnqEu92Fr1MmYUtfABc4AMP6lbBP.woff2") format("woff2"); unicode-range: U+400-45F, U+490-491, U+4B0-4B1, U+2116; }
@font-face { font-family: Roboto; font-style: normal; font-weight: 900; src: local("Roboto Black"), local("Roboto-Black"), url("chrome-extension://hfapbcheiepjppjbnkphkmegjlipojba/fonts/roboto/KFOlCnqEu92Fr1MmYUtfCBc4AMP6lbBP.woff2") format("woff2"); unicode-range: U+1F00-1FFF; }
@font-face { font-family: Roboto; font-style: normal; font-weight: 900; src: local("Roboto Black"), local("Roboto-Black"), url("chrome-extension://hfapbcheiepjppjbnkphkmegjlipojba/fonts/roboto/KFOlCnqEu92Fr1MmYUtfBxc4AMP6lbBP.woff2") format("woff2"); unicode-range: U+370-3FF; }
@font-face { font-family: Roboto; font-style: normal; font-weight: 900; src: local("Roboto Black"), local("Roboto-Black"), url("chrome-extension://hfapbcheiepjppjbnkphkmegjlipojba/fonts/roboto/KFOlCnqEu92Fr1MmYUtfCxc4AMP6lbBP.woff2") format("woff2"); unicode-range: U+102-103, U+110-111, U+1EA0-1EF9, U+20AB; }
@font-face { font-family: Roboto; font-style: normal; font-weight: 900; src: local("Roboto Black"), local("Roboto-Black"), url("chrome-extension://hfapbcheiepjppjbnkphkmegjlipojba/fonts/roboto/KFOlCnqEu92Fr1MmYUtfChc4AMP6lbBP.woff2") format("woff2"); unicode-range: U+100-24F, U+259, U+1E00-1EFF, U+2020, U+20A0-20AB, U+20AD-20CF, U+2113, U+2C60-2C7F, U+A720-A7FF; }
@font-face { font-family: Roboto; font-style: normal; font-weight: 900; src: local("Roboto Black"), local("Roboto-Black"), url("chrome-extension://hfapbcheiepjppjbnkphkmegjlipojba/fonts/roboto/KFOlCnqEu92Fr1MmYUtfBBc4AMP6lQ.woff2") format("woff2"); unicode-range: U+0-FF, U+131, U+152-153, U+2BB-2BC, U+2C6, U+2DA, U+2DC, U+2000-206F, U+2074, U+20AC, U+2122, U+2191, U+2193, U+2212, U+2215, U+FEFF, U+FFFD; }
@font-face { font-family: Montserrat; font-style: normal; font-weight: 400; src: local("Montserrat Regular"), local("Montserrat-Regular"), url("chrome-extension://hfapbcheiepjppjbnkphkmegjlipojba/fonts/montserrat/Montserrat-Regular.woff2") format("woff2"); }
@font-face { font-family: Montserrat; font-style: normal; font-weight: 500; src: local("Montserrat Medium"), local("Montserrat-Medium"), url("chrome-extension://hfapbcheiepjppjbnkphkmegjlipojba/fonts/montserrat/Montserrat-Medium.woff2") format("woff2"); }
@font-face { font-family: Montserrat; font-style: normal; font-weight: 600; src: local("Montserrat SemiBold"), local("Montserrat-SemiBold"), url("chrome-extension://hfapbcheiepjppjbnkphkmegjlipojba/fonts/montserrat/Montserrat-SemiBold.woff2") format("woff2"); }
@font-face { font-family: Montserrat; font-style: normal; font-weight: 700; src: local("Montserrat Bold"), local("Montserrat-Bold"), url("chrome-extension://hfapbcheiepjppjbnkphkmegjlipojba/fonts/montserrat/Montserrat-Bold.woff2") format("woff2"); }
@font-face { font-family: Montserrat; font-style: normal; font-weight: 800; src: local("Montserrat ExtraBold"), local("Montserrat-ExtraBold"), url("chrome-extension://hfapbcheiepjppjbnkphkmegjlipojba/fonts/montserrat/Montserrat-ExtraBold.woff2") format("woff2"); }
</style></defs><path d="M136 249.2h40v70h-40zM216.3 249.2h40v70h-40zM499.6 249.2h40v70h-40zM578 249.2h40v70h-40z" fill="#A5A5A5" p-id="1311"></path><path d="M960.8 491.1v-90c0-3.7 1.5-7 3.8-9.5 5-5.1 7.4-11.9 7.4-19 0-31.4-23.9-57.2-53.3-57.2h-827c-29.3 0-53.3 25.7-53.3 57.2V735h102.7c3.3 0 6-2.5 6.4-5.6 8.4-59.3 59.6-105 121.2-105s112.8 45.7 121.2 105c0.5 3.3 3.2 5.6 6.4 5.6h215c3.3 0 6-2.5 6.4-5.6 8.4-59.3 59.6-105 121.2-105s112.8 45.7 121.2 105c0.5 3.3 3.2 5.6 6.4 5.6h104.9V519.5c0-7.1-2.5-14-7.4-19-1.7-2.4-3.2-5.8-3.2-9.4z" fill="#FC4C4C" p-id="1312"></path><path d="M738.8 696.9c0 3.7 7.1 6.8 15.8 6.8 8.8 0 15.8-3 15.9-6.8 0-3.7-7.1-6.8-15.8-6.8-8.8 0.1-15.9 3.1-15.9 6.8z" fill="#252627" p-id="1313"></path><path d="M163.4 741.7c0 58.5 47.4 106 105.9 106s106.1-47.4 106.1-105.9v-0.1c0-58.5-47.4-106-105.9-106s-106 47.4-106.1 106c0-0.1 0 0 0 0z" fill="#333E48" p-id="1314"></path><path d="M203.9 744c0 37.2 30.1 67.4 67.3 67.4 37.2 0 67.4-30.1 67.4-67.3v-0.1c0-37.2-30.1-67.4-67.3-67.4s-67.4 30.1-67.4 67.4z" fill="#E2E1E1" p-id="1315"></path><path d="M246.2 744c0 14.5 11.7 26.2 26.2 26.2s26.2-11.7 26.2-26.2-11.7-26.2-26.2-26.2c-14.4 0-26.2 11.8-26.2 26.2z" fill="#514D46" p-id="1316"></path><path d="M255.4 696.9c0 3.7 7.1 6.8 15.8 6.8 8.8 0 15.9-3 15.9-6.8 0-3.7-7.1-6.8-15.8-6.8-8.8 0.1-15.9 3.1-15.9 6.8zM223.6 743.9c3.6 1.1 8.7-4.5 11.4-12.9 2.7-8.3 2-16.1-1.6-17.2v0.1c-3.6-1.1-8.7 4.5-11.4 12.9-2.7 8.3-2 16.1 1.6 17.1zM318.9 743.9c3.6-1.1 4.3-8.8 1.6-17.1s-7.8-14.1-11.3-12.9c-3.6 1.1-4.3 8.8-1.6 17.1 2.8 8.1 7.8 14 11.3 12.9zM309.6 768.5c-2.6-2.7-9.7 0.1-15.8 6.2-6.2 6.2-9.1 13.4-6.5 16.1 0 0.1 0.1 0.1 0.2 0.2 2.6 2.7 9.7-0.1 15.8-6.2s9.1-13.4 6.5-16.1c-0.1-0.1-0.1-0.2-0.2-0.2zM235.9 767.7c-2.8 2.4-0.6 9.8 5.1 16.4 5.6 6.6 12.5 10.1 15.4 7.8 2.8-2.4 0.6-9.8-5.1-16.4-5.6-6.7-12.5-10.2-15.4-7.8z" fill="#252627" p-id="1317"></path><path d="M633 744c0 58.5 47.4 106 105.9 106s106-47.4 106-105.9v-0.1c0-58.5-47.4-106-105.9-106-58.5-0.1-105.9 47.3-106 106z" fill="#333E48" p-id="1318"></path><path d="M673.4 746.4c0 37.2 30.1 67.4 67.3 67.4 37.2 0 67.4-30.1 67.4-67.3v-0.1c0-37.2-30.1-67.4-67.3-67.4-37.2-0.2-67.4 30-67.4 67.4 0-0.2 0-0.2 0 0z" fill="#E2E1E1" p-id="1319"></path><path d="M715.8 746.4c0 14.5 11.7 26.2 26.2 26.2s26.2-11.7 26.2-26.2-11.7-26.2-26.2-26.2-26.2 11.6-26.2 26.2z" fill="#514D46" p-id="1320"></path><path d="M725 699.2c0 3.7 7.1 6.8 15.8 6.8 8.8 0 15.9-3 15.9-6.8 0-3.7-7.1-6.8-15.8-6.8-8.8 0-15.9 3.1-15.9 6.8zM693.1 746c3.6 1.1 8.7-4.5 11.4-12.9 2.7-8.3 2-16.1-1.6-17.1-3.6-1.1-8.6 4.6-11.3 12.9-2.6 8.3-2.1 16 1.5 17.1zM788.6 746.1c3.6-1.1 4.3-8.8 1.6-17.1-2.7-8.3-7.8-14.1-11.3-12.9s-4.3 8.8-1.6 17.1c2.7 8.3 7.8 14.2 11.3 12.9zM779.1 770.7c-2.7-2.6-9.8 0.3-15.9 6.5s-8.9 13.4-6.2 16c2.7 2.6 9.8-0.3 15.9-6.5s8.9-13.4 6.2-16zM705.7 770c-2.8 2.4-0.6 9.8 5.1 16.4 5.6 6.6 12.5 10.1 15.4 7.7 2.8-2.4 0.6-9.8-5.1-16.4-5.7-6.7-12.6-10.1-15.4-7.7z" fill="#252627" p-id="1321"></path><path d="M686.8 229.3c0-6.1-9.1-11.1-20.2-11.1H90.1c-11 0-20.2 5.1-20.2 11.1v13.3c0 6.1 9.1 11.1 20.2 11.1h576.6c11 0 20.2-5.1 20.2-11.1l-0.1-13.3z" fill="#D1D3D3" p-id="1322"></path><path d="M780.6 469.9c0 10.1 7.2 18.2 16.1 18.2h117.2c8.9 0 16.1-8.2 16.1-18.2v-79.3c0-10.1-7.2-18.2-16.1-18.2H796.7c-8.9 0-16.1 8.2-16.1 18.2v79.3zM624.2 469.9c0 10.1 4.8 18.2 10.8 18.2h78.7c6 0 10.8-8.2 10.8-18.2v-79.3c0-10.1-4.8-18.2-10.8-18.2H635c-6 0-10.8 8.2-10.8 18.2v79.3zM89.7 469.9c0 10.1 4.8 18.2 10.8 18.2h78.7c6 0 10.8-8.2 10.8-18.2v-79.3c0-10.1-4.8-18.2-10.8-18.2h-78.7c-6 0-10.8 8.2-10.8 18.2v79.3z" fill="#A5E1EF" p-id="1323"></path><path d="M40.8 527.5h929.3v42.6H40.8v-42.6z" fill="#FFB819" p-id="1324"></path><path d="M293.4 410.5h245.5V423H293.4v-12.5z" fill="#FFB819" p-id="1325"></path><path d="M293.4 446.1h245.5v16H293.4v-16z" fill="#D1D3D3" p-id="1326"></path><path d="M555.3 411c0-5.5-3.4-10-7.5-10h-25.9c-4.2 0-7.5 4.5-7.5 10v52.3c0 5.5 3.4 10 7.5 10h25.9c4.2 0 7.5-4.5 7.5-10V411z m-250 0c0-5.5-3.4-10-7.5-10h-25.9c-4.2 0-7.5 4.5-7.5 10v52.3c0 5.5 3.4 10 7.5 10h25.9c4.2 0 7.5-4.5 7.5-10V411z" fill="#D1D3D3" p-id="1327"></path><path d="M849.4 310.2h-48.2l6.6-46.2c0.5-4.1 3.8-7 7.9-7h19.1c4.1 0 7.4 3 7.9 7l6.7 46.2z" fill="#FFA506" p-id="1328"></path><path d="M821.5 258.9h-6.6c-3.3 0-6.1 2.8-6.5 6.5l-5.5 43.2h6.6l5.5-43.2c0.4-3.7 3.2-6.5 6.5-6.5z" fill="#FFC866" p-id="1329"></path><path d="M795.3 308h60.3v8h-60.3z" fill="#F6F3DF" p-id="1330"></path><path d="M40.8 583.2h931.3v22.3H40.8v-22.3z" fill="#D1D3D3" p-id="1331"></path><path d="M896 441.3c-1.8 0.5-3.7-0.5-4.2-2l-17.2-53c-0.6-1.6 0.6-3.4 2.3-3.8 1.8-0.5 3.7 0.5 4.2 2l17.2 53c0.6 1.6-0.5 3.3-2.3 3.8zM890.4 475c-1.8 0.5-3.7-0.5-4.2-2L869 420c-0.6-1.6 0.6-3.4 2.3-3.8 1.8-0.5 3.7 0.5 4.2 2l17.2 53c0.6 1.7-0.5 3.4-2.3 3.8z" fill="#E1FEFF" p-id="1332"></path></svg>